<?xml version="1.0" encoding="utf-8"?>
<!-- Generator: Adobe Illustrator 24.0.0, SVG Export Plug-In . SVG Version: 6.00 Build 0)  -->
<svg version="1.1" id="Capa_1" xmlns="http://www.w3.org/2000/svg" xmlns:xlink="http://www.w3.org/1999/xlink" x="0px" y="0px"
	 viewBox="0 0 607.4 607.4" style="enable-background:new 0 0 607.4 607.4;" xml:space="preserve">
<style type="text/css">
	.st0{fill:#FFFFFF;}
</style>
<g>
	<path class="st0" d="M161.64,588.73c-19.82,0-39.64,0.04-59.45-0.02c-9.17-0.03-11.9-2.7-11.97-11.95
		c-0.12-13.83-0.13-27.66,0.03-41.49c0.04-3.61-1.18-5.73-4.32-7.59c-17.35-10.29-18.83-33-2.86-45.16
		c3.34-2.54,3.67-4.67,2.25-8.38c-9.85-25.6-19.37-51.33-29.28-76.9c-2.3-5.93-1.97-10.96,1.11-16.56
		C86.16,327.9,115,275.02,143.89,222.16c0.48-0.88,0.92-1.77,1.43-2.63c4.85-8.26,12.83-8.25,17.47,0.14
		c9.01,16.31,17.92,32.67,26.86,49.02c20.51,37.52,40.95,75.08,61.58,112.54c2.91,5.28,3.1,10.14,0.97,15.68
		c-9.79,25.44-19.28,51-29.11,76.42c-1.66,4.3-1.02,6.83,2.6,9.77c15.14,12.25,13.7,34.22-2.94,44.26
		c-3.87,2.34-5.12,5.05-5.06,9.29c0.16,13.49,0.1,26.99,0.04,40.49c-0.04,8.71-1.93,11.39-10.61,11.68
		c-15.14,0.5-30.31,0.14-45.47,0.14C161.64,588.88,161.64,588.8,161.64,588.73z M229.82,380.19
		c-22.2-40.61-43.72-79.97-65.23-119.32c-1.15,1.28-1.34,2.09-1.34,2.9c-0.02,31.83,0.03,63.65-0.08,95.48
		c-0.01,3.44,1.71,4.92,4.35,6.47c9.83,5.75,14.6,14.63,13.75,25.83c-0.99,13.01-11.37,23.52-23.48,24.91
		c-13.37,1.53-25.77-6.24-29.67-18.6c-4.03-12.77,0.99-25.57,13.02-32.4c2.87-1.63,3.88-3.5,3.86-6.72
		c-0.13-31.33-0.11-62.65-0.17-93.98c0-1.17-0.31-2.34-0.47-3.51c-0.33-0.05-0.67-0.11-1-0.16c-21.49,39.34-42.98,78.69-65.06,119.1
		c4.22,0,7.31-0.08,10.39,0.02c4.32,0.15,8.67,0.13,12.93,0.74c4.08,0.59,6.43,3.46,6.77,7.56c0.34,4.04-1.4,7.25-5.19,8.8
		c-1.93,0.79-4.18,1.08-6.3,1.13c-6.58,0.14-13.17,0.05-20.01,0.05c0.13,1.41,0.05,2.1,0.26,2.68
		c9.05,24.13,18.05,48.27,27.34,72.31c0.61,1.57,3.41,3.24,5.2,3.25c29.49,0.19,58.99,0.09,88.48,0.17
		c3.17,0.01,4.79-1.19,5.88-4.13c8.66-23.21,17.4-46.39,26.22-69.54c1.37-3.6,0.49-4.89-3.31-4.81c-6,0.13-12,0.21-17.99-0.02
		c-6.54-0.25-10.59-5.53-8.94-11.59c1.44-5.29,5.8-6.48,10.55-6.59C216.56,380.09,222.53,380.19,229.82,380.19z M153.68,570.85
		c0,0.03,0,0.06,0,0.09c13.5,0,27-0.15,40.49,0.08c4.44,0.07,5.85-1.53,5.75-5.82c-0.22-9.32-0.2-18.66-0.01-27.98
		c0.09-4.34-1.6-5.84-5.9-5.82c-26.66,0.16-53.32,0.18-79.98,0.1c-4.09-0.01-5.68,1.48-5.61,5.57c0.16,9.66,0.2,19.33-0.02,28.99
		c-0.08,3.68,1.01,4.92,4.8,4.86C126.68,570.73,140.18,570.85,153.68,570.85z M154.24,513.53c0-0.12,0-0.23,0-0.35
		c10.98,0,21.96,0,32.94,0c6.82,0,13.64,0.06,20.46-0.03c5.91-0.08,9.71-3.2,10.17-8.12c0.49-5.15-2.83-8.91-8.94-9.92
		c-1.95-0.32-3.97-0.38-5.95-0.37c-29.6,0.14-59.21,0.32-88.81,0.47c-5.14,0.03-10.3-0.39-15.4,0.06c-5.66,0.51-8.81,4.6-8.35,9.75
		c0.44,4.95,4.61,8.49,10,8.49C118.32,513.53,136.28,513.53,154.24,513.53z M145.25,389.5c0.06,5.2,3.7,8.92,8.72,8.91
		c5.19-0.01,9.08-4.02,8.96-9.23c-0.12-5.09-3.84-8.87-8.79-8.92C148.93,380.19,145.19,384.08,145.25,389.5z"/>
	<path class="st0" d="M429.93,234.72c-0.1,1.55-0.17,2.37-0.19,3.2c-0.26,7.68-3.34,10.71-11.16,10.79c-7,0.07-14,0.02-21,0.02
		c-55.16,0-110.31,0-165.47-0.01c-2,0-4.01,0.07-5.99-0.16c-5.18-0.61-8.31-4.51-8.26-10.09c0.05-5.46,3.38-9.26,8.64-9.73
		c1.65-0.15,3.33-0.07,5-0.07c52.99,0,105.98,0,158.97,0c1.82,0,3.65,0,5.47,0c0.12-0.27,0.24-0.54,0.35-0.82
		c-1.14-0.67-2.22-1.45-3.42-1.98c-14.59-6.43-26.96-15.83-37.14-28.04c-2.26-2.72-4.6-3.69-8.08-3.68
		c-38.49,0.11-76.99,0.07-115.48,0.05c-1.99,0-4.01-0.05-5.96-0.39c-5.86-1.04-8.73-4.93-8.35-11.03c0.33-5.3,4.21-8.88,10.04-8.9
		c15.5-0.07,30.99-0.03,46.49-0.03c19.83,0,39.66,0,59.49,0c1.81,0,3.62,0,6.09,0c-14.75-38.82-11.43-74.99,14.08-107.77
		c16.79-21.58,39.31-34.24,66.33-38.05c58.51-8.25,110.32,32.36,117.94,89.44c2.73,20.43-0.48,40.14-9.55,58.76
		c-9.14,18.79-22.75,33.52-40.68,44.2C470.33,231.02,450.96,235.5,429.93,234.72z M521.17,130.9c0.03-47.1-38.49-85.83-85.71-86.16
		c-47.03-0.33-86.13,38.74-86.22,86.15c-0.09,46.71,38.55,85.92,84.72,85.96C482.47,216.9,521.14,178.78,521.17,130.9z"/>
	<path class="st0" d="M362.7,331.06c20.32,0,40.13,0,60.35,0c0,57.27,0,114.45,0,172.16c-19.79,0-39.81,0-60.35,0
		C362.7,446.05,362.7,388.75,362.7,331.06z"/>
	<path class="st0" d="M450.18,540.8c0-2.87,0-5.15,0-7.43c0-92.99,0.04-185.98-0.11-278.97c-0.01-5.08,0.94-7.7,6.57-7.85
		c3.56-0.1,7.08-1.5,11.12-2.42c0,104.77,0,209.28,0,314.11c-78.72,0-157.28,0-236.21,0c0-5.69,0-11.27,0-17.44
		C304.4,540.8,376.96,540.8,450.18,540.8z"/>
	<path class="st0" d="M163.59,114.73c0,26.56,0,52.33,0,77.67c-5.99,0-11.61,0-17.57,0c0-31.26,0-63.1,0-95.2
		c58.86,0,117.41,0,176.15,0c-1.04,5.08-1.87,9.99-3.17,14.77c-0.3,1.13-2.04,2.2-3.34,2.64c-1.35,0.46-2.96,0.12-4.46,0.12
		c-46.81,0-93.61,0-140.42,0C168.63,114.73,166.5,114.73,163.59,114.73z"/>
	<path class="st0" d="M324.24,280.85c31.64,0,63.28-0.01,94.92,0.01c6.31,0,10.18,3.31,10.54,8.82c0.44,6.62-2.54,10.35-9.14,11.29
		c-1.8,0.26-3.65,0.24-5.48,0.24c-38.47,0.01-76.94,0.01-115.41,0.01c-22.98,0-45.97,0.17-68.94-0.17c-3.63-0.05-8.34-1.47-10.52-4
		c-1.97-2.28-2.09-7.17-1.33-10.52c0.89-3.96,4.6-5.72,8.94-5.71c24.81,0.06,49.63,0.03,74.44,0.03
		C309.58,280.85,316.91,280.85,324.24,280.85z"/>
	<path class="st0" d="M284.6,330.94c8.98,0,17.97-0.05,26.95,0.02c6.63,0.05,11.05,4.24,10.99,10.25
		c-0.06,5.77-4.36,9.95-10.77,9.98c-18.13,0.1-36.26,0.1-54.39,0c-6.66-0.03-11.17-4.4-11.07-10.26c0.1-5.85,4.7-9.94,11.35-9.97
		C266.63,330.9,275.61,330.94,284.6,330.94z"/>
	<path class="st0" d="M286.04,433.85c8.33,0,16.66-0.05,24.99,0.02c6.84,0.05,11.35,3.96,11.51,9.82
		c0.16,6.21-4.18,10.44-11.34,10.49c-16.99,0.12-33.99,0.13-50.98-0.01c-6.8-0.05-11.09-4.32-11.01-10.34
		c0.08-5.9,4.58-9.92,11.34-9.96C269.04,433.81,277.54,433.85,286.04,433.85z"/>
	<path class="st0" d="M284.81,483.85c8.99,0,17.98-0.05,26.96,0.02c6.46,0.04,10.72,4.03,10.76,9.9c0.04,5.91-4.13,9.92-10.61,9.94
		c-18.14,0.05-36.28,0.05-54.42,0c-6.79-0.02-10.78-4-10.64-10.38c0.12-5.76,4.13-9.43,10.49-9.46
		C266.5,483.82,275.66,483.85,284.81,483.85z"/>
	<path class="st0" d="M294.03,399.46c-5.83,0-11.66,0.07-17.48-0.02c-6.59-0.1-10.71-3.9-10.84-9.83
		c-0.14-6.3,3.83-10.52,10.61-10.62c11.82-0.18,23.65-0.19,35.46,0.01c6.53,0.11,10.98,4.81,10.76,10.66
		c-0.22,5.79-4.54,9.69-11.02,9.78C305.68,399.53,299.86,399.46,294.03,399.46z"/>
	<path class="st0" d="M485.73,131.4c-0.1,28.3-22.47,50.25-51.13,50.16c-28.04-0.09-50.07-22.77-49.92-51.39
		c0.14-27.89,22.78-50.11,50.91-49.98C463.81,80.31,485.83,102.79,485.73,131.4z"/>
</g>
</svg>
