<?xml version="1.0" encoding="utf-8"?>
<!-- Generator: Adobe Illustrator 24.0.0, SVG Export Plug-In . SVG Version: 6.00 Build 0)  -->
<svg version="1.1" id="Capa_1" xmlns="http://www.w3.org/2000/svg" xmlns:xlink="http://www.w3.org/1999/xlink" x="0px" y="0px"
	 viewBox="0 0 634.22 634.22" style="enable-background:new 0 0 634.22 634.22;" xml:space="preserve">
<style type="text/css">
	.st0{fill:#FFFFFF;}
</style>
<g>
	<path class="st0" d="M317.6,533.9c-73.66,0-147.32,0.02-220.98-0.02c-13.29-0.01-26.17-2.03-38.11-8.39
		C35.5,513.25,24.7,493.69,24.6,468.09c-0.23-62.66-0.22-125.31-0.29-187.97c-0.03-27.66,0.05-55.33-0.02-82.99
		c-0.07-27.53,10.24-49.13,35.16-62.6c6.79-3.67,11.86-8.89,15.2-15.99c4.09-8.71,11.69-12.62,20.9-13.12
		c8.96-0.48,17.95-0.47,26.92-0.28c11.14,0.23,19.48,5.54,24.28,15.54c2.32,4.82,5.61,6.46,10.61,6.41
		c27.99-0.24,55.97-0.42,83.96-0.47c4.68-0.01,7.82-1.73,10.16-5.79c3.24-5.62,6.78-11.08,10.36-16.49
		c9.63-14.55,23.17-22.22,40.66-22.25c48.33-0.09,96.66-0.08,144.99-0.01c17.92,0.02,31.61,7.99,41.37,22.88
		c3.01,4.59,6.03,9.2,8.65,14.02c3.05,5.63,7.43,7.79,13.82,7.7c11.31-0.16,22.64,0.29,33.96,0.65
		c32.38,1.03,56.32,20.27,63.12,50.91c1,4.51,1.43,9.23,1.43,13.86c0.08,91.66,0.06,183.31,0.06,274.97
		c0,37.72-28.99,66.79-66.83,66.82C467.92,533.95,392.76,533.9,317.6,533.9z M375.19,191.62c-76.3-0.02-137.7,61.33-138.79,136.61
		c-1.06,72.84,56.23,140.51,137.59,140.75c82.38,0.25,139.92-64.51,139.84-138.56C513.73,250.54,449.9,191.36,375.19,191.62z"/>
	<path class="st0" d="M283.08,330.11c-1.27-48.33,40.79-92.56,93.15-92.02c49.11,0.51,92.14,42.34,91.02,94.29
		c-0.99,45.64-38.37,90.11-92.27,90.06C320.82,422.38,281.76,376.87,283.08,330.11z M375.3,368.35
		c20.62,0.07,38.05-17.18,38.05-37.64c0.01-21.74-17.03-38.83-38.62-38.74c-21.2,0.08-37.69,16.57-37.77,37.75
		C336.88,351.9,353.14,368.28,375.3,368.35z"/>
</g>
</svg>
