<?xml version="1.0" encoding="utf-8"?>
<!-- Generator: Adobe Illustrator 25.2.1, SVG Export Plug-In . SVG Version: 6.00 Build 0)  -->
<svg version="1.1" id="Layer_1" xmlns="http://www.w3.org/2000/svg" xmlns:xlink="http://www.w3.org/1999/xlink" x="0px" y="0px"
	 viewBox="0 0 70 70" style="enable-background:new 0 0 70 70;" xml:space="preserve">
<style type="text/css">
	.st0{fill:#FFFFFF;stroke:#000000;stroke-miterlimit:10;}
</style>
<g>
	<g>
		<g>
			<path class="st0" d="M66.6,7.1H4.8c-1.8,0-3.3,1.4-3.3,3c0,6.7,0,37,0,43.8c0,1.7,1.5,3.1,3.3,3.1h22.6l-1.9,6h-6.5
				c-0.6,0-1.1,0.4-1.1,1v5c0,0.6,0.4,1,1.1,1h33.7c0.6,0,1.1-0.4,1.1-1v-5c0-0.6-0.4-1-1.1-1H46l-1.9-6h22.6c1.8,0,3.3-1.4,3.3-3.1
				V10.1C69.9,8.5,68.4,7.1,66.6,7.1z M4.8,9.1h61.8c0.6,0,1.2,0.5,1.2,1.1v35.2H3.6V10.1C3.6,9.6,4.1,9.1,4.8,9.1z M51.4,68H19.9
				v-3h31.6v3H51.4z M43.7,63.1H27.5l1.9-6h12.2L43.7,63.1z M66.6,55H4.8c-0.6,0-1.2-0.4-1.2-1v-6.6h64.2V54
				C67.8,54.6,67.2,55,66.6,55z"/>
			<path class="st0" d="M35.7,48.1c-1.8,0-3.3,1.4-3.3,3.1c0,1.7,1.5,3.1,3.3,3.1c1.8,0,3.3-1.4,3.3-3.1
				C39,49.5,37.5,48.1,35.7,48.1z M35.7,52.3c-0.6,0-1.2-0.5-1.2-1.1c0-0.6,0.5-1.1,1.2-1.1c0.6,0,1.2,0.5,1.2,1.1
				C36.8,51.8,36.3,52.3,35.7,52.3z"/>
			<path class="st0" d="M39.5,27.9l-5.3,5c-0.1,0.1-0.2,0.2-0.3,0.5l-1.4,6c-0.1,0.3,0,0.7,0.3,0.9c0.2,0.2,0.6,0.3,1,0.3l6.4-1.3
				c0.2,0,0.4-0.2,0.5-0.3l5.3-4.9l9.1,8.5c0.4,0.4,1.1,0.4,1.5,0l6.6-6.2c0.4-0.4,0.4-1,0-1.4l-9.1-8.5l6.7-6.3
				c0.4-0.4,0.4-1,0-1.4L56,14.1c-0.2-0.2-0.4-0.3-0.7-0.3c-0.3,0-0.5,0.1-0.7,0.3c-0.1,0.1-6.8,6.4-6.7,6.3l-9.1-8.5
				c-0.2-0.2-0.4-0.3-0.7-0.3c-0.3,0-0.5,0.1-0.7,0.3l-6.6,6.2c-0.4,0.4-0.4,1,0,1.4C30.5,19.6,39.6,28,39.5,27.9z M42,30.3
				l-4.6,4.2l-1-0.9l4.6-4.3L42,30.3z M35.6,35.6l1.1,1l1.1,1l-2.8,0.6L35.6,35.6z M39.8,36.9l-1-0.9l4.6-4.3l1,0.9L39.8,36.9z
				 M54.6,23.1l-2,1.9l-1-0.9l2-1.9L54.6,23.1z M55,16.2l3.4,3.2L56,21.7c-0.2-0.2-3.6-3.4-3.4-3.2L55,16.2z M51.1,19.9l1,0.9
				l-2,1.9l-1-0.9L51.1,19.9z M37.8,14l23.1,21.6l-5.1,4.8l-3.1-2.9l2.7-2.5c0.4-0.4,0.4-1,0-1.4c-0.4-0.4-1.1-0.4-1.5,0l-2.7,2.5
				l-2.4-2.2l1.7-1.6c0.4-0.4,0.4-1,0-1.4c-0.4-0.4-1.1-0.4-1.5,0l-1.7,1.6l-0.6-0.6L45,30.3l0.5-0.4l2.2-2.1c0.4-0.4,0.4-1,0-1.4
				c-0.4-0.4-1.1-0.4-1.5,0l-2.7,2.5l-2.4-2.2l1.7-1.6c0.4-0.4,0.4-1,0-1.4c-0.4-0.4-1.1-0.4-1.5,0l-1.7,1.6l-2.4-2.2l2.7-2.5
				c0.4-0.4,0.4-1,0-1.4c-0.4-0.4-1.1-0.4-1.5,0l-2.7,2.5l-3.1-2.9L37.8,14z"/>
			<path class="st0" d="M8.9,18.1h17.2c0.6,0,1.1-0.4,1.1-1c0-0.6-0.4-1-1.1-1H8.9c-0.6,0-1.1,0.4-1.1,1C7.9,17.7,8.4,18.1,8.9,18.1
				z"/>
			<path class="st0" d="M8.9,24.8h17.2c0.6,0,1.1-0.4,1.1-1c0-0.6-0.4-1-1.1-1H8.9c-0.6,0-1.1,0.4-1.1,1C7.9,24.4,8.4,24.8,8.9,24.8
				z"/>
			<path class="st0" d="M8.9,31.5h17.2c0.6,0,1.1-0.4,1.1-1c0-0.6-0.4-1-1.1-1H8.9c-0.6,0-1.1,0.4-1.1,1C7.9,31.1,8.4,31.5,8.9,31.5
				z"/>
			<path class="st0" d="M8.9,38.3h17.2c0.6,0,1.1-0.4,1.1-1c0-0.6-0.4-1-1.1-1H8.9c-0.6,0-1.1,0.4-1.1,1C7.9,37.8,8.4,38.3,8.9,38.3
				z"/>
		</g>
	</g>
</g>
</svg>
