<?xml version="1.0" encoding="utf-8"?>
<!-- Generator: Adobe Illustrator 25.2.1, SVG Export Plug-In . SVG Version: 6.00 Build 0)  -->
<svg version="1.1" id="Layer_1" xmlns="http://www.w3.org/2000/svg" xmlns:xlink="http://www.w3.org/1999/xlink" x="0px" y="0px"
	 viewBox="0 0 70 70" style="enable-background:new 0 0 70 70;" xml:space="preserve">
<style type="text/css">
	.st0{fill:#FFFFFF;}
</style>
<g>
	<path class="st0" d="M35,6.5c16,0,24.1,11.3,24.7,23C60.4,42.3,52,55.8,35,55.8c-17.1,0-25.3-12.9-24.7-25.6
		C10.8,18.2,19.1,6.5,35,6.5z M54.6,19.2l-14.3,6.1l14.8,17C58.4,35.2,58.4,26.2,54.6,19.2z M54.9,42.5l-12.4-9.6l-6.8,20.9
		C43.7,53.5,50.9,49.2,54.9,42.5L54.9,42.5z M35.4,53.8l1.9-15.1l-21.8,4.6C19.8,49.9,27.4,53.9,35.4,53.8L35.4,53.8z M15.4,43.1
		l14.3-6.1L15,19.9C11.4,27.3,11.5,36.3,15.4,43.1L15.4,43.1z M15.1,19.8l12.4,9.6l6.8-20.9C26.3,8.7,19.1,13,15.1,19.8L15.1,19.8z
		 M34.6,8.5l-1.9,15.1L54.5,19C50.2,12.3,42.6,8.4,34.6,8.5L34.6,8.5z"/>
	<path class="st0" d="M35,4.2c15.2,0,27.5,12.1,27.5,27c0,14.9-12.3,27-27.5,27c-15.2,0-27.5-12.1-27.5-27C7.5,16.2,19.8,4.2,35,4.2
		z M35,4.7C20.1,4.7,8.1,16.5,8.1,31.1c0,14.6,12.1,26.5,26.9,26.5c14.9,0,26.9-11.8,26.9-26.5C61.9,16.5,49.9,4.7,35,4.7z"/>
	<path class="st0" d="M35,0.7c17.1,0,31,13.6,31,30.5C66,48,52.1,61.6,35,61.6C17.9,61.6,4,48,4,31.1C4,14.3,17.9,0.7,35,0.7z
		 M35,3.3C19.4,3.3,6.7,15.8,6.7,31.1c0,15.4,12.7,27.8,28.3,27.8c15.6,0,28.3-12.4,28.3-27.8C63.3,15.8,50.6,3.3,35,3.3z"/>
</g>
</svg>
