<?xml version="1.0" encoding="utf-8"?>
<!-- Generator: Adobe Illustrator 25.2.1, SVG Export Plug-In . SVG Version: 6.00 Build 0)  -->
<svg version="1.1" id="Layer_1" xmlns="http://www.w3.org/2000/svg" xmlns:xlink="http://www.w3.org/1999/xlink" x="0px" y="0px"
	 viewBox="0 0 62 62" style="enable-background:new 0 0 62 62;" xml:space="preserve">
<style type="text/css">
	.st0{fill:#FFFFFF;}
	.st1{stroke:#FFFFFF;stroke-miterlimit:10;}
	.st2{fill:#FFFFFF;stroke:#000000;stroke-miterlimit:10;}
</style>
<path class="st0" d="M42.9,62C42.9,62,42.9,62,42.9,62c0.8,0,1.3-0.6,1.3-1.3c0-0.7-0.6-1.3-1.3-1.3h-1.4H19.1H18
	c-0.7,0-1.3,0.6-1.3,1.3c0,0.6,0.4,1.1,1,1.3c0.1,0,0.2,0.1,0.4,0.1H42.9z"/>
<path class="st1" d="M58.8,11.1h-7.1l-13.1,21c-0.1,0.1-0.1,0.2-0.2,0.3L37.9,33c0.2,1,0.4,4.1-2.8,5.5c-1.8,1.4-3.7,3.4-3.5,5.4
	c0.1,0.7-0.2,1.1-0.4,1.2c-0.3,0.2-0.6,0.2-0.9,0v5.6H2.9V14h27.4v21.5c0-0.1,0.1-0.2,0.1-0.3c0.2-0.5,1.2-3.5,3.4-4.3l0.5-0.2
	c0,0,0,0,0,0l0.2-0.6c0.1-0.1,0.1-0.3,0.2-0.4l11.6-18.6H3.2c-1.8,0-3.2,1.5-3.2,3.3v38.2c0,1.8,1.5,3.3,3.2,3.3h17.4l-1.5,2.6h22.3
	L40,55.9h18.8c1.8,0,3.2-1.5,3.2-3.3V14.4C62,12.6,60.5,11.1,58.8,11.1z"/>
<path class="st2" d="M55.8,0.2c-0.5-0.4-1.3-0.2-1.6,0.4l-6.6,10.6L36.2,29.4c0.3,0,0.6,0,0.9,0.2c0.4,0.2,0.6,0.6,0.9,1.3
	l12.3-19.8l5.8-9.3C56.5,1.3,56.4,0.5,55.8,0.2z"/>
<path class="st2" d="M33.9,34.7c0-0.1,0-0.2,0-0.2c-0.2-0.5-0.3-1-0.5-1.2c-0.1-0.1-0.3,0-0.8,0.2l-0.3,0.1
	c-0.9,0.5-1.4,2.4-1.6,3.1l0,0l0,0c-0.3,0.8-0.5,1.5-0.6,2.2c-0.4,2-0.2,3.5,0,4.3c0,0.1,0.1,0.2,0.1,0.3c0-2.1,1.2-3.9,2.3-5.3l0,0
	l0,0C34,37.5,34,35.5,33.9,34.7z"/>
</svg>
