<?xml version="1.0" encoding="utf-8"?>
<!-- Generator: Adobe Illustrator 25.2.1, SVG Export Plug-In . SVG Version: 6.00 Build 0)  -->
<svg version="1.1" id="Layer_1" xmlns="http://www.w3.org/2000/svg" xmlns:xlink="http://www.w3.org/1999/xlink" x="0px" y="0px"
	 viewBox="0 0 107 112" style="enable-background:new 0 0 107 112;" xml:space="preserve">
<style type="text/css">
	.st0{fill:none;}
	.st1{fill:#FFFFFF;}
</style>
<g>
	<path class="st0" d="M120.91,56.35c0-37.28-30.22-67.5-67.5-67.5s-67.5,30.22-67.5,67.5c0,33.69,24.68,61.62,56.95,66.68V75.86
		H25.73V56.35h17.14V41.48c0-16.92,10.08-26.26,25.5-26.26c7.39,0,15.11,1.32,15.11,1.32v16.61h-8.51c-8.39,0-11,5.2-11,10.54v12.66
		h18.72l-2.99,19.51H63.96v47.17C96.23,117.97,120.91,90.04,120.91,56.35z"/>
	<path class="st1" d="M79.69,75.86l2.99-19.51H63.96V43.69c0-5.34,2.62-10.54,11-10.54h8.51V16.54c0,0-7.72-1.32-15.11-1.32
		c-15.42,0-25.5,9.34-25.5,26.26v14.87H25.73v19.51h17.14v47.17c3.44,0.54,6.96,0.82,10.55,0.82c3.59,0,7.11-0.28,10.55-0.82V75.86
		H79.69z"/>
</g>
</svg>
