<?xml version="1.0" encoding="utf-8"?>
<!-- Generator: Adobe Illustrator 25.2.1, SVG Export Plug-In . SVG Version: 6.00 Build 0)  -->
<svg version="1.1" id="Layer_1" xmlns="http://www.w3.org/2000/svg" xmlns:xlink="http://www.w3.org/1999/xlink" x="0px" y="0px"
	 viewBox="0 0 107 112" style="enable-background:new 0 0 107 112;" xml:space="preserve">
<style type="text/css">
	.st0{fill:#FFFFFF;stroke:#000000;stroke-miterlimit:10;}
</style>
<g>
	<g>
		<g>
			<path class="st0" d="M58.92,48.16c1.09-1.25,1.99-2.51,3.1-3.58c3.44-3.3,7.5-4.96,12.25-4.92c2.61,0.02,5.19,0.21,7.7,0.95
				c5.75,1.69,9.1,5.73,10.69,11.45c1.2,4.29,1.42,8.7,1.42,13.12c0.02,9.32-0.03,18.65-0.01,27.97c0,0.87-0.24,1.1-1.08,1.1
				c-4.72-0.04-9.43-0.04-14.15,0c-0.83,0.01-1.01-0.25-1.01-1.05c0.03-8.87,0.03-17.74,0-26.62c-0.01-2.22-0.15-4.45-0.76-6.61
				c-1.13-3.98-3.93-6.01-8.02-5.79c-5.59,0.3-8.5,3.12-9.21,8.91c-0.17,1.38-0.25,2.77-0.25,4.16c0.01,8.63-0.01,17.26,0.02,25.89
				c0,0.86-0.21,1.11-1.07,1.11c-4.75-0.04-9.5-0.04-14.25,0c-0.76,0.01-0.98-0.2-0.98-0.99c0.02-17.08,0.02-34.17,0-51.25
				c0-0.85,0.27-1.04,1.06-1.04c4.51,0.03,9.02,0.04,13.53,0c0.83-0.01,1.04,0.27,1.03,1.07C58.89,44.07,58.92,46.12,58.92,48.16z"
				/>
			<path class="st0" d="M33.08,67.68c0,8.45-0.01,16.9,0.02,25.35c0,0.94-0.23,1.22-1.18,1.21c-4.71-0.05-9.43-0.04-14.14-0.01
				c-0.76,0.01-0.98-0.19-0.98-0.98c0.02-17.11,0.02-34.22,0-51.34c0-0.71,0.17-0.96,0.91-0.96c4.78,0.03,9.57,0.04,14.35-0.01
				c0.92-0.01,1.04,0.35,1.04,1.16C33.07,50.64,33.08,59.16,33.08,67.68z"/>
			<path class="st0" d="M34.38,24.01c0.01,5.31-4.22,9.63-9.42,9.63c-5.13,0-9.4-4.32-9.41-9.55c-0.02-5.28,4.24-9.63,9.43-9.63
				C30.13,14.47,34.38,18.78,34.38,24.01z"/>
		</g>
	</g>
</g>
</svg>
