<?xml version="1.0" encoding="utf-8"?>
<!-- Generator: Adobe Illustrator 25.2.1, SVG Export Plug-In . SVG Version: 6.00 Build 0)  -->
<svg version="1.1" id="Layer_1" xmlns="http://www.w3.org/2000/svg" xmlns:xlink="http://www.w3.org/1999/xlink" x="0px" y="0px"
	 viewBox="0 0 135 135" style="enable-background:new 0 0 135 135;" xml:space="preserve">
<style type="text/css">
	.st0{fill:none;}
	.st1{fill-rule:evenodd;clip-rule:evenodd;fill:#FFFFFF;}
</style>
<g>
	<ellipse class="st0" cx="67.39" cy="72.57" rx="91.39" ry="88.5"/>
	<g>
		<g id="WA_Logo_10_">
			<g>
				<path class="st1" d="M111.35,31.09c-10.95-10.61-25.5-16.45-41.01-16.46c-31.95,0-57.96,25.18-57.98,56.12
					c0,9.89,2.67,19.55,7.74,28.06l-8.22,29.08l30.73-7.8c8.47,4.47,18,6.83,27.7,6.83h0.02c0,0,0,0,0,0
					c31.95,0,57.96-25.18,57.97-56.12C128.32,55.8,122.3,41.7,111.35,31.09z M70.34,117.44h-0.02c-8.65,0-17.13-2.25-24.53-6.5
					l-1.76-1.01l-18.24,4.63l4.87-17.21l-1.15-1.76c-4.82-7.43-7.37-16.01-7.37-24.83c0.01-25.72,21.63-46.65,48.21-46.65
					c12.87,0,24.97,4.86,34.07,13.68c9.1,8.82,14.11,20.54,14.1,33C118.52,96.51,96.9,117.44,70.34,117.44z M96.77,82.5
					c-1.45-0.7-8.57-4.09-9.9-4.56c-1.33-0.47-2.29-0.7-3.26,0.7c-0.97,1.4-3.74,4.56-4.59,5.5c-0.85,0.94-1.69,1.05-3.14,0.35
					c-1.45-0.7-6.12-2.18-11.65-6.96c-4.31-3.72-7.21-8.31-8.06-9.71c-0.85-1.4-0.09-2.16,0.64-2.86c0.65-0.63,1.45-1.64,2.17-2.46
					c0.72-0.82,0.97-1.4,1.45-2.34c0.48-0.94,0.24-1.75-0.12-2.46s-3.26-7.6-4.47-10.41c-1.18-2.73-2.37-2.36-3.26-2.41
					c-0.84-0.04-1.81-0.05-2.78-0.05c-0.97,0-2.54,0.35-3.86,1.75c-1.33,1.4-5.07,4.8-5.07,11.7c0,6.9,5.19,13.57,5.91,14.51
					c0.72,0.94,10.21,15.1,24.75,21.18c3.46,1.44,6.15,2.31,8.26,2.95c3.47,1.07,6.63,0.92,9.12,0.56c2.78-0.4,8.57-3.39,9.78-6.67
					c1.21-3.28,1.21-6.08,0.84-6.67C99.19,83.55,98.22,83.2,96.77,82.5z"/>
			</g>
		</g>
	</g>
</g>
</svg>
