<?xml version="1.0" encoding="utf-8"?>
<!-- Generator: Adobe Illustrator 25.2.1, SVG Export Plug-In . SVG Version: 6.00 Build 0)  -->
<svg version="1.1" id="Layer_1" xmlns="http://www.w3.org/2000/svg" xmlns:xlink="http://www.w3.org/1999/xlink" x="0px" y="0px"
	 viewBox="0 0 107 112" style="enable-background:new 0 0 107 112;" xml:space="preserve">
<style type="text/css">
	.st0{fill:none;}
	.st1{fill:#FFFFFF;}
</style>
<g>
	<ellipse class="st0" cx="53.41" cy="56.35" rx="63.34" ry="67.5"/>
	<path class="st1" d="M93.87,34.69c-0.97-3.87-3.83-6.92-7.47-7.96c-6.59-1.88-33-1.88-33-1.88s-26.41,0-33,1.88
		c-3.63,1.04-6.5,4.08-7.47,7.96c-1.76,7.02-1.76,21.66-1.76,21.66s0,14.64,1.76,21.66c0.97,3.87,3.83,6.92,7.47,7.96
		c6.59,1.88,33,1.88,33,1.88s26.41,0,33-1.88c3.63-1.04,6.5-4.08,7.47-7.96c1.76-7.02,1.76-21.66,1.76-21.66
		S95.64,41.71,93.87,34.69z M44.97,69.85v-27l21.94,13.5L44.97,69.85z"/>
</g>
</svg>
